<mxfile host="app.diagrams.net" agent="Mozilla/5.0 (Windows NT 10.0; Win64; x64) AppleWebKit/537.36 (KHTML, like Gecko) Chrome/132.0.0.0 Safari/537.36" version="28.1.0">
  <diagram id="C5RBs43oDa-KdzZeNtuy" name="Page-1">
    <mxGraphModel dx="1123" dy="1813" grid="1" gridSize="10" guides="1" tooltips="1" connect="1" arrows="1" fold="1" page="1" pageScale="1" pageWidth="827" pageHeight="1169" math="0" shadow="0">
      <root>
        <mxCell id="WIyWlLk6GJQsqaUBKTNV-0" />
        <mxCell id="WIyWlLk6GJQsqaUBKTNV-1" parent="WIyWlLk6GJQsqaUBKTNV-0" />
        <mxCell id="0DjkUchRcJfhXVdbSxQK-125" value="" style="verticalLabelPosition=bottom;shadow=0;dashed=0;align=center;html=1;verticalAlign=top;shape=mxgraph.electrical.logic_gates.logic_gate;operation=and;" vertex="1" parent="WIyWlLk6GJQsqaUBKTNV-1">
          <mxGeometry x="250" y="-1120" width="100" height="90" as="geometry" />
        </mxCell>
        <mxCell id="0DjkUchRcJfhXVdbSxQK-126" value="" style="verticalLabelPosition=bottom;shadow=0;dashed=0;align=center;html=1;verticalAlign=top;shape=mxgraph.electrical.logic_gates.logic_gate;operation=and;" vertex="1" parent="WIyWlLk6GJQsqaUBKTNV-1">
          <mxGeometry x="250" y="-920" width="100" height="90" as="geometry" />
        </mxCell>
        <mxCell id="0DjkUchRcJfhXVdbSxQK-127" value="" style="verticalLabelPosition=bottom;shadow=0;dashed=0;align=center;html=1;verticalAlign=top;shape=mxgraph.electrical.logic_gates.logic_gate;operation=and;" vertex="1" parent="WIyWlLk6GJQsqaUBKTNV-1">
          <mxGeometry x="250" y="-1020" width="100" height="90" as="geometry" />
        </mxCell>
        <mxCell id="0DjkUchRcJfhXVdbSxQK-128" value="Feeding time&amp;nbsp;" style="ellipse;whiteSpace=wrap;html=1;direction=south;" vertex="1" parent="WIyWlLk6GJQsqaUBKTNV-1">
          <mxGeometry x="40" y="-1120" width="60" height="60" as="geometry" />
        </mxCell>
        <mxCell id="0DjkUchRcJfhXVdbSxQK-129" style="edgeStyle=orthogonalEdgeStyle;rounded=0;orthogonalLoop=1;jettySize=auto;html=1;exitX=0.5;exitY=0;exitDx=0;exitDy=0;entryX=0;entryY=0.5;entryDx=0;entryDy=0;" edge="1" parent="WIyWlLk6GJQsqaUBKTNV-1" source="0DjkUchRcJfhXVdbSxQK-133" target="0DjkUchRcJfhXVdbSxQK-157">
          <mxGeometry relative="1" as="geometry">
            <Array as="points">
              <mxPoint x="120" y="-1040" />
              <mxPoint x="120" y="-1115" />
            </Array>
          </mxGeometry>
        </mxCell>
        <mxCell id="0DjkUchRcJfhXVdbSxQK-130" style="edgeStyle=orthogonalEdgeStyle;rounded=0;orthogonalLoop=1;jettySize=auto;html=1;exitX=1;exitY=0.5;exitDx=0;exitDy=0;entryX=0;entryY=0.5;entryDx=0;entryDy=0;" edge="1" parent="WIyWlLk6GJQsqaUBKTNV-1" source="0DjkUchRcJfhXVdbSxQK-133" target="0DjkUchRcJfhXVdbSxQK-161">
          <mxGeometry relative="1" as="geometry">
            <Array as="points">
              <mxPoint x="100" y="-1005" />
            </Array>
          </mxGeometry>
        </mxCell>
        <mxCell id="0DjkUchRcJfhXVdbSxQK-131" style="edgeStyle=orthogonalEdgeStyle;rounded=0;orthogonalLoop=1;jettySize=auto;html=1;exitX=1;exitY=1;exitDx=0;exitDy=0;entryX=0;entryY=0.5;entryDx=0;entryDy=0;" edge="1" parent="WIyWlLk6GJQsqaUBKTNV-1" source="0DjkUchRcJfhXVdbSxQK-133" target="0DjkUchRcJfhXVdbSxQK-168">
          <mxGeometry relative="1" as="geometry">
            <Array as="points">
              <mxPoint x="91" y="-980" />
              <mxPoint x="180" y="-980" />
              <mxPoint x="180" y="-905" />
            </Array>
          </mxGeometry>
        </mxCell>
        <mxCell id="0DjkUchRcJfhXVdbSxQK-132" style="edgeStyle=orthogonalEdgeStyle;rounded=0;orthogonalLoop=1;jettySize=auto;html=1;exitX=1;exitY=0;exitDx=0;exitDy=0;entryX=0;entryY=0.5;entryDx=0;entryDy=0;" edge="1" parent="WIyWlLk6GJQsqaUBKTNV-1" source="0DjkUchRcJfhXVdbSxQK-133" target="0DjkUchRcJfhXVdbSxQK-169">
          <mxGeometry relative="1" as="geometry">
            <Array as="points">
              <mxPoint x="160" y="-1033" />
              <mxPoint x="160" y="-805" />
            </Array>
          </mxGeometry>
        </mxCell>
        <mxCell id="0DjkUchRcJfhXVdbSxQK-133" value="Food Level" style="ellipse;whiteSpace=wrap;html=1;" vertex="1" parent="WIyWlLk6GJQsqaUBKTNV-1">
          <mxGeometry x="40" y="-1040" width="60" height="50" as="geometry" />
        </mxCell>
        <mxCell id="0DjkUchRcJfhXVdbSxQK-134" style="edgeStyle=orthogonalEdgeStyle;rounded=0;orthogonalLoop=1;jettySize=auto;html=1;exitX=0.5;exitY=0;exitDx=0;exitDy=0;entryX=0;entryY=0.5;entryDx=0;entryDy=0;" edge="1" parent="WIyWlLk6GJQsqaUBKTNV-1" source="0DjkUchRcJfhXVdbSxQK-138" target="0DjkUchRcJfhXVdbSxQK-172">
          <mxGeometry relative="1" as="geometry">
            <Array as="points">
              <mxPoint x="140" y="-960" />
              <mxPoint x="140" y="-1085" />
            </Array>
          </mxGeometry>
        </mxCell>
        <mxCell id="0DjkUchRcJfhXVdbSxQK-135" style="edgeStyle=orthogonalEdgeStyle;rounded=0;orthogonalLoop=1;jettySize=auto;html=1;exitX=1;exitY=0.5;exitDx=0;exitDy=0;entryX=0;entryY=0.5;entryDx=0;entryDy=0;" edge="1" parent="WIyWlLk6GJQsqaUBKTNV-1" source="0DjkUchRcJfhXVdbSxQK-138" target="0DjkUchRcJfhXVdbSxQK-162">
          <mxGeometry relative="1" as="geometry">
            <Array as="points">
              <mxPoint x="150" y="-940" />
              <mxPoint x="150" y="-985" />
            </Array>
          </mxGeometry>
        </mxCell>
        <mxCell id="0DjkUchRcJfhXVdbSxQK-136" style="edgeStyle=orthogonalEdgeStyle;rounded=0;orthogonalLoop=1;jettySize=auto;html=1;exitX=1;exitY=1;exitDx=0;exitDy=0;entryX=0;entryY=0.5;entryDx=0;entryDy=0;" edge="1" parent="WIyWlLk6GJQsqaUBKTNV-1" source="0DjkUchRcJfhXVdbSxQK-138" target="0DjkUchRcJfhXVdbSxQK-165">
          <mxGeometry relative="1" as="geometry">
            <Array as="points">
              <mxPoint x="140" y="-926" />
              <mxPoint x="140" y="-885" />
            </Array>
          </mxGeometry>
        </mxCell>
        <mxCell id="0DjkUchRcJfhXVdbSxQK-137" style="edgeStyle=orthogonalEdgeStyle;rounded=0;orthogonalLoop=1;jettySize=auto;html=1;exitX=1;exitY=1;exitDx=0;exitDy=0;entryX=0.5;entryY=1;entryDx=0;entryDy=0;" edge="1" parent="WIyWlLk6GJQsqaUBKTNV-1" source="0DjkUchRcJfhXVdbSxQK-138" target="0DjkUchRcJfhXVdbSxQK-170">
          <mxGeometry relative="1" as="geometry">
            <Array as="points">
              <mxPoint x="150" y="-917" />
              <mxPoint x="150" y="-775" />
              <mxPoint x="265" y="-775" />
            </Array>
          </mxGeometry>
        </mxCell>
        <mxCell id="0DjkUchRcJfhXVdbSxQK-138" value="Food Tray&amp;nbsp;" style="ellipse;whiteSpace=wrap;html=1;" vertex="1" parent="WIyWlLk6GJQsqaUBKTNV-1">
          <mxGeometry x="40" y="-960" width="60" height="50" as="geometry" />
        </mxCell>
        <mxCell id="0DjkUchRcJfhXVdbSxQK-139" value="" style="verticalLabelPosition=bottom;shadow=0;dashed=0;align=center;html=1;verticalAlign=top;shape=mxgraph.electrical.logic_gates.logic_gate;operation=and;" vertex="1" parent="WIyWlLk6GJQsqaUBKTNV-1">
          <mxGeometry x="250" y="-820" width="100" height="90" as="geometry" />
        </mxCell>
        <mxCell id="0DjkUchRcJfhXVdbSxQK-140" style="edgeStyle=orthogonalEdgeStyle;rounded=0;orthogonalLoop=1;jettySize=auto;html=1;exitX=0.5;exitY=0;exitDx=0;exitDy=0;entryX=0;entryY=0.5;entryDx=0;entryDy=0;" edge="1" parent="WIyWlLk6GJQsqaUBKTNV-1" source="0DjkUchRcJfhXVdbSxQK-142" target="0DjkUchRcJfhXVdbSxQK-158">
          <mxGeometry relative="1" as="geometry">
            <Array as="points">
              <mxPoint x="130" y="-900" />
              <mxPoint x="130" y="-1065" />
            </Array>
          </mxGeometry>
        </mxCell>
        <mxCell id="0DjkUchRcJfhXVdbSxQK-141" style="edgeStyle=orthogonalEdgeStyle;rounded=0;orthogonalLoop=1;jettySize=auto;html=1;exitX=1;exitY=0.5;exitDx=0;exitDy=0;entryX=0;entryY=0.5;entryDx=0;entryDy=0;" edge="1" parent="WIyWlLk6GJQsqaUBKTNV-1" source="0DjkUchRcJfhXVdbSxQK-142" target="0DjkUchRcJfhXVdbSxQK-163">
          <mxGeometry relative="1" as="geometry" />
        </mxCell>
        <mxCell id="0DjkUchRcJfhXVdbSxQK-142" value="Previous food&amp;nbsp;" style="ellipse;whiteSpace=wrap;html=1;" vertex="1" parent="WIyWlLk6GJQsqaUBKTNV-1">
          <mxGeometry x="50" y="-900" width="60" height="50" as="geometry" />
        </mxCell>
        <mxCell id="0DjkUchRcJfhXVdbSxQK-216" style="edgeStyle=orthogonalEdgeStyle;rounded=0;orthogonalLoop=1;jettySize=auto;html=1;exitX=0.5;exitY=0;exitDx=0;exitDy=0;entryX=0;entryY=0.5;entryDx=0;entryDy=0;" edge="1" parent="WIyWlLk6GJQsqaUBKTNV-1" source="0DjkUchRcJfhXVdbSxQK-145" target="0DjkUchRcJfhXVdbSxQK-215">
          <mxGeometry relative="1" as="geometry">
            <Array as="points">
              <mxPoint x="110" y="-830" />
              <mxPoint x="110" y="-1055" />
            </Array>
          </mxGeometry>
        </mxCell>
        <mxCell id="0DjkUchRcJfhXVdbSxQK-218" style="edgeStyle=orthogonalEdgeStyle;rounded=0;orthogonalLoop=1;jettySize=auto;html=1;exitX=1;exitY=0.5;exitDx=0;exitDy=0;entryX=0;entryY=0.5;entryDx=0;entryDy=0;" edge="1" parent="WIyWlLk6GJQsqaUBKTNV-1" source="0DjkUchRcJfhXVdbSxQK-145" target="0DjkUchRcJfhXVdbSxQK-164">
          <mxGeometry relative="1" as="geometry" />
        </mxCell>
        <mxCell id="0DjkUchRcJfhXVdbSxQK-145" value="Food Eaten after dispensing&amp;nbsp;" style="ellipse;whiteSpace=wrap;html=1;" vertex="1" parent="WIyWlLk6GJQsqaUBKTNV-1">
          <mxGeometry x="45" y="-830" width="75" height="50" as="geometry" />
        </mxCell>
        <mxCell id="0DjkUchRcJfhXVdbSxQK-146" style="edgeStyle=orthogonalEdgeStyle;rounded=0;orthogonalLoop=1;jettySize=auto;html=1;exitX=1;exitY=0.5;exitDx=0;exitDy=0;entryX=0;entryY=0.5;entryDx=0;entryDy=0;" edge="1" parent="WIyWlLk6GJQsqaUBKTNV-1" source="0DjkUchRcJfhXVdbSxQK-150" target="0DjkUchRcJfhXVdbSxQK-167">
          <mxGeometry relative="1" as="geometry" />
        </mxCell>
        <mxCell id="0DjkUchRcJfhXVdbSxQK-147" style="edgeStyle=orthogonalEdgeStyle;rounded=0;orthogonalLoop=1;jettySize=auto;html=1;exitX=0.5;exitY=1;exitDx=0;exitDy=0;entryX=0.5;entryY=1;entryDx=0;entryDy=0;" edge="1" parent="WIyWlLk6GJQsqaUBKTNV-1" source="0DjkUchRcJfhXVdbSxQK-150" target="0DjkUchRcJfhXVdbSxQK-171">
          <mxGeometry relative="1" as="geometry" />
        </mxCell>
        <mxCell id="0DjkUchRcJfhXVdbSxQK-148" style="edgeStyle=orthogonalEdgeStyle;rounded=0;orthogonalLoop=1;jettySize=auto;html=1;exitX=1;exitY=0;exitDx=0;exitDy=0;entryX=0;entryY=0.5;entryDx=0;entryDy=0;" edge="1" parent="WIyWlLk6GJQsqaUBKTNV-1" source="0DjkUchRcJfhXVdbSxQK-150" target="0DjkUchRcJfhXVdbSxQK-166">
          <mxGeometry relative="1" as="geometry">
            <Array as="points">
              <mxPoint x="230" y="-763" />
              <mxPoint x="230" y="-865" />
            </Array>
          </mxGeometry>
        </mxCell>
        <mxCell id="0DjkUchRcJfhXVdbSxQK-149" style="edgeStyle=orthogonalEdgeStyle;rounded=0;orthogonalLoop=1;jettySize=auto;html=1;exitX=1;exitY=1;exitDx=0;exitDy=0;entryX=0;entryY=0.5;entryDx=0;entryDy=0;" edge="1" parent="WIyWlLk6GJQsqaUBKTNV-1" source="0DjkUchRcJfhXVdbSxQK-150" target="0DjkUchRcJfhXVdbSxQK-160">
          <mxGeometry relative="1" as="geometry" />
        </mxCell>
        <mxCell id="0DjkUchRcJfhXVdbSxQK-150" value="Dispensing Food&amp;nbsp;" style="ellipse;whiteSpace=wrap;html=1;" vertex="1" parent="WIyWlLk6GJQsqaUBKTNV-1">
          <mxGeometry x="40" y="-770" width="105" height="50" as="geometry" />
        </mxCell>
        <mxCell id="0DjkUchRcJfhXVdbSxQK-151" value="" style="verticalLabelPosition=bottom;shadow=0;dashed=0;align=center;html=1;verticalAlign=top;shape=mxgraph.electrical.logic_gates.logic_gate;operation=or;" vertex="1" parent="WIyWlLk6GJQsqaUBKTNV-1">
          <mxGeometry x="470" y="-1010" width="140" height="80" as="geometry" />
        </mxCell>
        <mxCell id="0DjkUchRcJfhXVdbSxQK-152" style="edgeStyle=orthogonalEdgeStyle;rounded=0;orthogonalLoop=1;jettySize=auto;html=1;exitX=1;exitY=0.5;exitDx=0;exitDy=0;exitPerimeter=0;entryX=0;entryY=0.25;entryDx=0;entryDy=0;entryPerimeter=0;" edge="1" parent="WIyWlLk6GJQsqaUBKTNV-1" source="0DjkUchRcJfhXVdbSxQK-125" target="0DjkUchRcJfhXVdbSxQK-151">
          <mxGeometry relative="1" as="geometry" />
        </mxCell>
        <mxCell id="0DjkUchRcJfhXVdbSxQK-153" style="edgeStyle=orthogonalEdgeStyle;rounded=0;orthogonalLoop=1;jettySize=auto;html=1;exitX=1;exitY=0.5;exitDx=0;exitDy=0;exitPerimeter=0;entryX=0.214;entryY=0.375;entryDx=0;entryDy=0;entryPerimeter=0;" edge="1" parent="WIyWlLk6GJQsqaUBKTNV-1" source="0DjkUchRcJfhXVdbSxQK-127" target="0DjkUchRcJfhXVdbSxQK-151">
          <mxGeometry relative="1" as="geometry">
            <Array as="points">
              <mxPoint x="360" y="-980" />
            </Array>
          </mxGeometry>
        </mxCell>
        <mxCell id="0DjkUchRcJfhXVdbSxQK-154" style="edgeStyle=orthogonalEdgeStyle;rounded=0;orthogonalLoop=1;jettySize=auto;html=1;exitX=1;exitY=0.5;exitDx=0;exitDy=0;exitPerimeter=0;entryX=0;entryY=0.75;entryDx=0;entryDy=0;entryPerimeter=0;" edge="1" parent="WIyWlLk6GJQsqaUBKTNV-1" source="0DjkUchRcJfhXVdbSxQK-126" target="0DjkUchRcJfhXVdbSxQK-151">
          <mxGeometry relative="1" as="geometry" />
        </mxCell>
        <mxCell id="0DjkUchRcJfhXVdbSxQK-155" style="edgeStyle=orthogonalEdgeStyle;rounded=0;orthogonalLoop=1;jettySize=auto;html=1;exitX=1;exitY=0.5;exitDx=0;exitDy=0;exitPerimeter=0;entryX=0.181;entryY=0.929;entryDx=0;entryDy=0;entryPerimeter=0;" edge="1" parent="WIyWlLk6GJQsqaUBKTNV-1" source="0DjkUchRcJfhXVdbSxQK-139" target="0DjkUchRcJfhXVdbSxQK-151">
          <mxGeometry relative="1" as="geometry">
            <Array as="points">
              <mxPoint x="400" y="-870" />
              <mxPoint x="400" y="-936" />
            </Array>
          </mxGeometry>
        </mxCell>
        <mxCell id="0DjkUchRcJfhXVdbSxQK-156" value="Alarm &quot;The tray is Full&quot;." style="rounded=1;whiteSpace=wrap;html=1;" vertex="1" parent="WIyWlLk6GJQsqaUBKTNV-1">
          <mxGeometry x="610" y="-1000" width="120" height="60" as="geometry" />
        </mxCell>
        <mxCell id="0DjkUchRcJfhXVdbSxQK-157" value="" style="ellipse;whiteSpace=wrap;html=1;aspect=fixed;" vertex="1" parent="WIyWlLk6GJQsqaUBKTNV-1">
          <mxGeometry x="260" y="-1120" width="10" height="10" as="geometry" />
        </mxCell>
        <mxCell id="0DjkUchRcJfhXVdbSxQK-158" value="" style="ellipse;whiteSpace=wrap;html=1;aspect=fixed;" vertex="1" parent="WIyWlLk6GJQsqaUBKTNV-1">
          <mxGeometry x="260" y="-1070" width="10" height="10" as="geometry" />
        </mxCell>
        <mxCell id="0DjkUchRcJfhXVdbSxQK-160" value="" style="ellipse;whiteSpace=wrap;html=1;aspect=fixed;" vertex="1" parent="WIyWlLk6GJQsqaUBKTNV-1">
          <mxGeometry x="260" y="-1040" width="10" height="10" as="geometry" />
        </mxCell>
        <mxCell id="0DjkUchRcJfhXVdbSxQK-161" value="" style="ellipse;whiteSpace=wrap;html=1;aspect=fixed;" vertex="1" parent="WIyWlLk6GJQsqaUBKTNV-1">
          <mxGeometry x="260" y="-1010" width="10" height="10" as="geometry" />
        </mxCell>
        <mxCell id="0DjkUchRcJfhXVdbSxQK-162" value="" style="ellipse;whiteSpace=wrap;html=1;aspect=fixed;" vertex="1" parent="WIyWlLk6GJQsqaUBKTNV-1">
          <mxGeometry x="260" y="-990" width="10" height="10" as="geometry" />
        </mxCell>
        <mxCell id="0DjkUchRcJfhXVdbSxQK-163" value="" style="ellipse;whiteSpace=wrap;html=1;aspect=fixed;" vertex="1" parent="WIyWlLk6GJQsqaUBKTNV-1">
          <mxGeometry x="260" y="-970" width="10" height="10" as="geometry" />
        </mxCell>
        <mxCell id="0DjkUchRcJfhXVdbSxQK-164" value="" style="ellipse;whiteSpace=wrap;html=1;aspect=fixed;" vertex="1" parent="WIyWlLk6GJQsqaUBKTNV-1">
          <mxGeometry x="240" y="-960" width="10" height="10" as="geometry" />
        </mxCell>
        <mxCell id="0DjkUchRcJfhXVdbSxQK-165" value="" style="ellipse;whiteSpace=wrap;html=1;aspect=fixed;" vertex="1" parent="WIyWlLk6GJQsqaUBKTNV-1">
          <mxGeometry x="260" y="-890" width="10" height="10" as="geometry" />
        </mxCell>
        <mxCell id="0DjkUchRcJfhXVdbSxQK-166" value="" style="ellipse;whiteSpace=wrap;html=1;aspect=fixed;" vertex="1" parent="WIyWlLk6GJQsqaUBKTNV-1">
          <mxGeometry x="260" y="-870" width="10" height="10" as="geometry" />
        </mxCell>
        <mxCell id="0DjkUchRcJfhXVdbSxQK-167" value="" style="ellipse;whiteSpace=wrap;html=1;aspect=fixed;" vertex="1" parent="WIyWlLk6GJQsqaUBKTNV-1">
          <mxGeometry x="260" y="-850" width="10" height="10" as="geometry" />
        </mxCell>
        <mxCell id="0DjkUchRcJfhXVdbSxQK-168" value="" style="ellipse;whiteSpace=wrap;html=1;aspect=fixed;" vertex="1" parent="WIyWlLk6GJQsqaUBKTNV-1">
          <mxGeometry x="260" y="-910" width="10" height="10" as="geometry" />
        </mxCell>
        <mxCell id="0DjkUchRcJfhXVdbSxQK-169" value="" style="ellipse;whiteSpace=wrap;html=1;aspect=fixed;" vertex="1" parent="WIyWlLk6GJQsqaUBKTNV-1">
          <mxGeometry x="260" y="-810" width="10" height="10" as="geometry" />
        </mxCell>
        <mxCell id="0DjkUchRcJfhXVdbSxQK-170" value="" style="ellipse;whiteSpace=wrap;html=1;aspect=fixed;" vertex="1" parent="WIyWlLk6GJQsqaUBKTNV-1">
          <mxGeometry x="260" y="-780" width="10" height="10" as="geometry" />
        </mxCell>
        <mxCell id="0DjkUchRcJfhXVdbSxQK-171" value="" style="ellipse;whiteSpace=wrap;html=1;aspect=fixed;" vertex="1" parent="WIyWlLk6GJQsqaUBKTNV-1">
          <mxGeometry x="260" y="-740" width="10" height="10" as="geometry" />
        </mxCell>
        <mxCell id="0DjkUchRcJfhXVdbSxQK-172" value="" style="ellipse;whiteSpace=wrap;html=1;aspect=fixed;" vertex="1" parent="WIyWlLk6GJQsqaUBKTNV-1">
          <mxGeometry x="260" y="-1090" width="10" height="10" as="geometry" />
        </mxCell>
        <mxCell id="0DjkUchRcJfhXVdbSxQK-173" style="edgeStyle=orthogonalEdgeStyle;rounded=0;orthogonalLoop=1;jettySize=auto;html=1;entryX=0;entryY=0.25;entryDx=0;entryDy=0;entryPerimeter=0;" edge="1" parent="WIyWlLk6GJQsqaUBKTNV-1" source="0DjkUchRcJfhXVdbSxQK-128" target="0DjkUchRcJfhXVdbSxQK-125">
          <mxGeometry relative="1" as="geometry">
            <Array as="points">
              <mxPoint x="175" y="-1097" />
            </Array>
          </mxGeometry>
        </mxCell>
        <mxCell id="0DjkUchRcJfhXVdbSxQK-174" style="edgeStyle=orthogonalEdgeStyle;rounded=0;orthogonalLoop=1;jettySize=auto;html=1;entryX=0;entryY=0.25;entryDx=0;entryDy=0;entryPerimeter=0;" edge="1" parent="WIyWlLk6GJQsqaUBKTNV-1" source="0DjkUchRcJfhXVdbSxQK-128" target="0DjkUchRcJfhXVdbSxQK-127">
          <mxGeometry relative="1" as="geometry">
            <Array as="points">
              <mxPoint x="200" y="-1090" />
              <mxPoint x="200" y="-997" />
            </Array>
          </mxGeometry>
        </mxCell>
        <mxCell id="0DjkUchRcJfhXVdbSxQK-175" style="edgeStyle=orthogonalEdgeStyle;rounded=0;orthogonalLoop=1;jettySize=auto;html=1;exitX=1;exitY=0;exitDx=0;exitDy=0;entryX=0;entryY=0.25;entryDx=0;entryDy=0;entryPerimeter=0;" edge="1" parent="WIyWlLk6GJQsqaUBKTNV-1" source="0DjkUchRcJfhXVdbSxQK-128" target="0DjkUchRcJfhXVdbSxQK-126">
          <mxGeometry relative="1" as="geometry">
            <Array as="points">
              <mxPoint x="170" y="-1069" />
              <mxPoint x="170" y="-897" />
            </Array>
          </mxGeometry>
        </mxCell>
        <mxCell id="0DjkUchRcJfhXVdbSxQK-176" style="edgeStyle=orthogonalEdgeStyle;rounded=0;orthogonalLoop=1;jettySize=auto;html=1;entryX=0;entryY=0.25;entryDx=0;entryDy=0;entryPerimeter=0;" edge="1" parent="WIyWlLk6GJQsqaUBKTNV-1" source="0DjkUchRcJfhXVdbSxQK-128" target="0DjkUchRcJfhXVdbSxQK-139">
          <mxGeometry relative="1" as="geometry">
            <Array as="points">
              <mxPoint x="190" y="-1080" />
              <mxPoint x="190" y="-797" />
            </Array>
          </mxGeometry>
        </mxCell>
        <mxCell id="0DjkUchRcJfhXVdbSxQK-177" style="edgeStyle=orthogonalEdgeStyle;rounded=0;orthogonalLoop=1;jettySize=auto;html=1;exitX=1;exitY=0;exitDx=0;exitDy=0;entryX=0;entryY=0.75;entryDx=0;entryDy=0;entryPerimeter=0;" edge="1" parent="WIyWlLk6GJQsqaUBKTNV-1" source="0DjkUchRcJfhXVdbSxQK-142" target="0DjkUchRcJfhXVdbSxQK-126">
          <mxGeometry relative="1" as="geometry" />
        </mxCell>
        <mxCell id="0DjkUchRcJfhXVdbSxQK-178" style="edgeStyle=orthogonalEdgeStyle;rounded=0;orthogonalLoop=1;jettySize=auto;html=1;exitX=1;exitY=1;exitDx=0;exitDy=0;entryX=0;entryY=0.75;entryDx=0;entryDy=0;entryPerimeter=0;" edge="1" parent="WIyWlLk6GJQsqaUBKTNV-1" source="0DjkUchRcJfhXVdbSxQK-142" target="0DjkUchRcJfhXVdbSxQK-139">
          <mxGeometry relative="1" as="geometry">
            <Array as="points">
              <mxPoint x="170" y="-857" />
              <mxPoint x="170" y="-752" />
            </Array>
          </mxGeometry>
        </mxCell>
        <mxCell id="0DjkUchRcJfhXVdbSxQK-179" style="edgeStyle=orthogonalEdgeStyle;rounded=0;orthogonalLoop=1;jettySize=auto;html=1;exitX=1;exitY=1;exitDx=0;exitDy=0;entryX=0.167;entryY=0.367;entryDx=0;entryDy=0;entryPerimeter=0;" edge="1" parent="WIyWlLk6GJQsqaUBKTNV-1" source="0DjkUchRcJfhXVdbSxQK-145" target="0DjkUchRcJfhXVdbSxQK-139">
          <mxGeometry relative="1" as="geometry" />
        </mxCell>
        <mxCell id="0DjkUchRcJfhXVdbSxQK-180" style="edgeStyle=orthogonalEdgeStyle;rounded=0;orthogonalLoop=1;jettySize=auto;html=1;exitX=0.5;exitY=1;exitDx=0;exitDy=0;entryX=0.2;entryY=0.507;entryDx=0;entryDy=0;entryPerimeter=0;" edge="1" parent="WIyWlLk6GJQsqaUBKTNV-1" source="0DjkUchRcJfhXVdbSxQK-145" target="0DjkUchRcJfhXVdbSxQK-126">
          <mxGeometry relative="1" as="geometry">
            <Array as="points">
              <mxPoint x="130" y="-780" />
              <mxPoint x="130" y="-870" />
              <mxPoint x="270" y="-870" />
            </Array>
          </mxGeometry>
        </mxCell>
        <mxCell id="0DjkUchRcJfhXVdbSxQK-182" value="" style="verticalLabelPosition=bottom;shadow=0;dashed=0;align=center;html=1;verticalAlign=top;shape=mxgraph.electrical.logic_gates.logic_gate;operation=and;" vertex="1" parent="WIyWlLk6GJQsqaUBKTNV-1">
          <mxGeometry x="250" y="-640" width="100" height="90" as="geometry" />
        </mxCell>
        <mxCell id="0DjkUchRcJfhXVdbSxQK-183" value="" style="verticalLabelPosition=bottom;shadow=0;dashed=0;align=center;html=1;verticalAlign=top;shape=mxgraph.electrical.logic_gates.logic_gate;operation=and;" vertex="1" parent="WIyWlLk6GJQsqaUBKTNV-1">
          <mxGeometry x="250" y="-540" width="100" height="90" as="geometry" />
        </mxCell>
        <mxCell id="0DjkUchRcJfhXVdbSxQK-184" value="Feeding time&amp;nbsp;" style="ellipse;whiteSpace=wrap;html=1;direction=south;" vertex="1" parent="WIyWlLk6GJQsqaUBKTNV-1">
          <mxGeometry x="30" y="-665" width="60" height="60" as="geometry" />
        </mxCell>
        <mxCell id="0DjkUchRcJfhXVdbSxQK-205" style="edgeStyle=orthogonalEdgeStyle;rounded=0;orthogonalLoop=1;jettySize=auto;html=1;exitX=1;exitY=0;exitDx=0;exitDy=0;entryX=0;entryY=0.5;entryDx=0;entryDy=0;" edge="1" parent="WIyWlLk6GJQsqaUBKTNV-1" source="0DjkUchRcJfhXVdbSxQK-185" target="0DjkUchRcJfhXVdbSxQK-193">
          <mxGeometry relative="1" as="geometry" />
        </mxCell>
        <mxCell id="0DjkUchRcJfhXVdbSxQK-206" style="edgeStyle=orthogonalEdgeStyle;rounded=0;orthogonalLoop=1;jettySize=auto;html=1;exitX=1;exitY=1;exitDx=0;exitDy=0;entryX=0;entryY=0.5;entryDx=0;entryDy=0;" edge="1" parent="WIyWlLk6GJQsqaUBKTNV-1" source="0DjkUchRcJfhXVdbSxQK-185" target="0DjkUchRcJfhXVdbSxQK-197">
          <mxGeometry relative="1" as="geometry" />
        </mxCell>
        <mxCell id="0DjkUchRcJfhXVdbSxQK-185" value="Food Level" style="ellipse;whiteSpace=wrap;html=1;" vertex="1" parent="WIyWlLk6GJQsqaUBKTNV-1">
          <mxGeometry x="30" y="-584" width="60" height="50" as="geometry" />
        </mxCell>
        <mxCell id="0DjkUchRcJfhXVdbSxQK-186" value="Food Tray&amp;nbsp;" style="ellipse;whiteSpace=wrap;html=1;" vertex="1" parent="WIyWlLk6GJQsqaUBKTNV-1">
          <mxGeometry x="30" y="-520" width="60" height="50" as="geometry" />
        </mxCell>
        <mxCell id="0DjkUchRcJfhXVdbSxQK-209" style="edgeStyle=orthogonalEdgeStyle;rounded=0;orthogonalLoop=1;jettySize=auto;html=1;exitX=1;exitY=0;exitDx=0;exitDy=0;entryX=0;entryY=0.5;entryDx=0;entryDy=0;" edge="1" parent="WIyWlLk6GJQsqaUBKTNV-1" source="0DjkUchRcJfhXVdbSxQK-187" target="0DjkUchRcJfhXVdbSxQK-201">
          <mxGeometry relative="1" as="geometry">
            <Array as="points">
              <mxPoint x="190" y="-443" />
              <mxPoint x="190" y="-605" />
            </Array>
          </mxGeometry>
        </mxCell>
        <mxCell id="0DjkUchRcJfhXVdbSxQK-210" style="edgeStyle=orthogonalEdgeStyle;rounded=0;orthogonalLoop=1;jettySize=auto;html=1;exitX=1;exitY=1;exitDx=0;exitDy=0;entryX=0;entryY=0.5;entryDx=0;entryDy=0;" edge="1" parent="WIyWlLk6GJQsqaUBKTNV-1" source="0DjkUchRcJfhXVdbSxQK-187" target="0DjkUchRcJfhXVdbSxQK-198">
          <mxGeometry relative="1" as="geometry" />
        </mxCell>
        <mxCell id="0DjkUchRcJfhXVdbSxQK-187" value="Previous food&amp;nbsp;" style="ellipse;whiteSpace=wrap;html=1;" vertex="1" parent="WIyWlLk6GJQsqaUBKTNV-1">
          <mxGeometry x="30" y="-450" width="60" height="50" as="geometry" />
        </mxCell>
        <mxCell id="0DjkUchRcJfhXVdbSxQK-211" style="edgeStyle=orthogonalEdgeStyle;rounded=0;orthogonalLoop=1;jettySize=auto;html=1;exitX=1;exitY=0;exitDx=0;exitDy=0;entryX=0;entryY=1;entryDx=0;entryDy=0;" edge="1" parent="WIyWlLk6GJQsqaUBKTNV-1" source="0DjkUchRcJfhXVdbSxQK-188" target="0DjkUchRcJfhXVdbSxQK-194">
          <mxGeometry relative="1" as="geometry">
            <Array as="points">
              <mxPoint x="220" y="-373" />
              <mxPoint x="220" y="-582" />
            </Array>
          </mxGeometry>
        </mxCell>
        <mxCell id="0DjkUchRcJfhXVdbSxQK-188" value="Food Eaten after dispensing&amp;nbsp;" style="ellipse;whiteSpace=wrap;html=1;" vertex="1" parent="WIyWlLk6GJQsqaUBKTNV-1">
          <mxGeometry x="25" y="-380" width="75" height="50" as="geometry" />
        </mxCell>
        <mxCell id="0DjkUchRcJfhXVdbSxQK-213" style="edgeStyle=orthogonalEdgeStyle;rounded=0;orthogonalLoop=1;jettySize=auto;html=1;exitX=1;exitY=0;exitDx=0;exitDy=0;entryX=0;entryY=0.5;entryDx=0;entryDy=0;" edge="1" parent="WIyWlLk6GJQsqaUBKTNV-1" source="0DjkUchRcJfhXVdbSxQK-189" target="0DjkUchRcJfhXVdbSxQK-195">
          <mxGeometry relative="1" as="geometry" />
        </mxCell>
        <mxCell id="0DjkUchRcJfhXVdbSxQK-214" style="edgeStyle=orthogonalEdgeStyle;rounded=0;orthogonalLoop=1;jettySize=auto;html=1;exitX=1;exitY=1;exitDx=0;exitDy=0;entryX=0;entryY=1;entryDx=0;entryDy=0;" edge="1" parent="WIyWlLk6GJQsqaUBKTNV-1" source="0DjkUchRcJfhXVdbSxQK-189" target="0DjkUchRcJfhXVdbSxQK-200">
          <mxGeometry relative="1" as="geometry" />
        </mxCell>
        <mxCell id="0DjkUchRcJfhXVdbSxQK-189" value="Dispensing Food&amp;nbsp;" style="ellipse;whiteSpace=wrap;html=1;" vertex="1" parent="WIyWlLk6GJQsqaUBKTNV-1">
          <mxGeometry x="27.5" y="-310" width="82.5" height="50" as="geometry" />
        </mxCell>
        <mxCell id="0DjkUchRcJfhXVdbSxQK-190" value="" style="verticalLabelPosition=bottom;shadow=0;dashed=0;align=center;html=1;verticalAlign=top;shape=mxgraph.electrical.logic_gates.logic_gate;operation=or;" vertex="1" parent="WIyWlLk6GJQsqaUBKTNV-1">
          <mxGeometry x="470" y="-530" width="140" height="80" as="geometry" />
        </mxCell>
        <mxCell id="0DjkUchRcJfhXVdbSxQK-191" style="edgeStyle=orthogonalEdgeStyle;rounded=0;orthogonalLoop=1;jettySize=auto;html=1;exitX=1;exitY=0.5;exitDx=0;exitDy=0;exitPerimeter=0;entryX=0;entryY=0.25;entryDx=0;entryDy=0;entryPerimeter=0;" edge="1" parent="WIyWlLk6GJQsqaUBKTNV-1" source="0DjkUchRcJfhXVdbSxQK-182" target="0DjkUchRcJfhXVdbSxQK-190">
          <mxGeometry relative="1" as="geometry" />
        </mxCell>
        <mxCell id="0DjkUchRcJfhXVdbSxQK-192" value="Alarm &quot;The Food is not eaten before dispensing&quot; ." style="rounded=1;whiteSpace=wrap;html=1;" vertex="1" parent="WIyWlLk6GJQsqaUBKTNV-1">
          <mxGeometry x="610" y="-520" width="120" height="60" as="geometry" />
        </mxCell>
        <mxCell id="0DjkUchRcJfhXVdbSxQK-193" value="" style="ellipse;whiteSpace=wrap;html=1;aspect=fixed;" vertex="1" parent="WIyWlLk6GJQsqaUBKTNV-1">
          <mxGeometry x="260" y="-640" width="10" height="10" as="geometry" />
        </mxCell>
        <mxCell id="0DjkUchRcJfhXVdbSxQK-194" value="" style="ellipse;whiteSpace=wrap;html=1;aspect=fixed;" vertex="1" parent="WIyWlLk6GJQsqaUBKTNV-1">
          <mxGeometry x="260" y="-590" width="10" height="10" as="geometry" />
        </mxCell>
        <mxCell id="0DjkUchRcJfhXVdbSxQK-195" value="" style="ellipse;whiteSpace=wrap;html=1;aspect=fixed;" vertex="1" parent="WIyWlLk6GJQsqaUBKTNV-1">
          <mxGeometry x="260" y="-570" width="10" height="10" as="geometry" />
        </mxCell>
        <mxCell id="0DjkUchRcJfhXVdbSxQK-197" value="" style="ellipse;whiteSpace=wrap;html=1;aspect=fixed;" vertex="1" parent="WIyWlLk6GJQsqaUBKTNV-1">
          <mxGeometry x="260" y="-530" width="10" height="10" as="geometry" />
        </mxCell>
        <mxCell id="0DjkUchRcJfhXVdbSxQK-198" value="" style="ellipse;whiteSpace=wrap;html=1;aspect=fixed;" vertex="1" parent="WIyWlLk6GJQsqaUBKTNV-1">
          <mxGeometry x="260" y="-510" width="10" height="10" as="geometry" />
        </mxCell>
        <mxCell id="0DjkUchRcJfhXVdbSxQK-200" value="" style="ellipse;whiteSpace=wrap;html=1;aspect=fixed;" vertex="1" parent="WIyWlLk6GJQsqaUBKTNV-1">
          <mxGeometry x="260" y="-470" width="10" height="10" as="geometry" />
        </mxCell>
        <mxCell id="0DjkUchRcJfhXVdbSxQK-201" value="" style="ellipse;whiteSpace=wrap;html=1;aspect=fixed;" vertex="1" parent="WIyWlLk6GJQsqaUBKTNV-1">
          <mxGeometry x="260" y="-610" width="10" height="10" as="geometry" />
        </mxCell>
        <mxCell id="0DjkUchRcJfhXVdbSxQK-202" style="edgeStyle=orthogonalEdgeStyle;rounded=0;orthogonalLoop=1;jettySize=auto;html=1;exitX=1;exitY=0.5;exitDx=0;exitDy=0;exitPerimeter=0;entryX=0;entryY=0.75;entryDx=0;entryDy=0;entryPerimeter=0;" edge="1" parent="WIyWlLk6GJQsqaUBKTNV-1" source="0DjkUchRcJfhXVdbSxQK-183" target="0DjkUchRcJfhXVdbSxQK-190">
          <mxGeometry relative="1" as="geometry" />
        </mxCell>
        <mxCell id="0DjkUchRcJfhXVdbSxQK-203" style="edgeStyle=orthogonalEdgeStyle;rounded=0;orthogonalLoop=1;jettySize=auto;html=1;exitX=0.5;exitY=0;exitDx=0;exitDy=0;entryX=0;entryY=0.25;entryDx=0;entryDy=0;entryPerimeter=0;" edge="1" parent="WIyWlLk6GJQsqaUBKTNV-1" source="0DjkUchRcJfhXVdbSxQK-184" target="0DjkUchRcJfhXVdbSxQK-182">
          <mxGeometry relative="1" as="geometry">
            <Array as="points">
              <mxPoint x="150" y="-635" />
              <mxPoint x="150" y="-618" />
            </Array>
          </mxGeometry>
        </mxCell>
        <mxCell id="0DjkUchRcJfhXVdbSxQK-204" style="edgeStyle=orthogonalEdgeStyle;rounded=0;orthogonalLoop=1;jettySize=auto;html=1;exitX=1;exitY=0;exitDx=0;exitDy=0;entryX=0;entryY=0.25;entryDx=0;entryDy=0;entryPerimeter=0;" edge="1" parent="WIyWlLk6GJQsqaUBKTNV-1" source="0DjkUchRcJfhXVdbSxQK-184" target="0DjkUchRcJfhXVdbSxQK-183">
          <mxGeometry relative="1" as="geometry">
            <Array as="points">
              <mxPoint x="140" y="-614" />
              <mxPoint x="140" y="-518" />
            </Array>
          </mxGeometry>
        </mxCell>
        <mxCell id="0DjkUchRcJfhXVdbSxQK-207" style="edgeStyle=orthogonalEdgeStyle;rounded=0;orthogonalLoop=1;jettySize=auto;html=1;exitX=1;exitY=0.5;exitDx=0;exitDy=0;entryX=0;entryY=0.75;entryDx=0;entryDy=0;entryPerimeter=0;" edge="1" parent="WIyWlLk6GJQsqaUBKTNV-1" source="0DjkUchRcJfhXVdbSxQK-186" target="0DjkUchRcJfhXVdbSxQK-182">
          <mxGeometry relative="1" as="geometry">
            <Array as="points">
              <mxPoint x="180" y="-495" />
              <mxPoint x="180" y="-572" />
            </Array>
          </mxGeometry>
        </mxCell>
        <mxCell id="0DjkUchRcJfhXVdbSxQK-208" style="edgeStyle=orthogonalEdgeStyle;rounded=0;orthogonalLoop=1;jettySize=auto;html=1;exitX=1;exitY=1;exitDx=0;exitDy=0;entryX=0;entryY=0.75;entryDx=0;entryDy=0;entryPerimeter=0;" edge="1" parent="WIyWlLk6GJQsqaUBKTNV-1" source="0DjkUchRcJfhXVdbSxQK-186" target="0DjkUchRcJfhXVdbSxQK-183">
          <mxGeometry relative="1" as="geometry">
            <Array as="points">
              <mxPoint x="81" y="-472" />
            </Array>
          </mxGeometry>
        </mxCell>
        <mxCell id="0DjkUchRcJfhXVdbSxQK-212" style="edgeStyle=orthogonalEdgeStyle;rounded=0;orthogonalLoop=1;jettySize=auto;html=1;exitX=1;exitY=1;exitDx=0;exitDy=0;entryX=0.187;entryY=0.588;entryDx=0;entryDy=0;entryPerimeter=0;" edge="1" parent="WIyWlLk6GJQsqaUBKTNV-1" source="0DjkUchRcJfhXVdbSxQK-188" target="0DjkUchRcJfhXVdbSxQK-183">
          <mxGeometry relative="1" as="geometry">
            <Array as="points">
              <mxPoint x="210" y="-337" />
              <mxPoint x="210" y="-487" />
            </Array>
          </mxGeometry>
        </mxCell>
        <mxCell id="0DjkUchRcJfhXVdbSxQK-215" value="" style="ellipse;whiteSpace=wrap;html=1;aspect=fixed;" vertex="1" parent="WIyWlLk6GJQsqaUBKTNV-1">
          <mxGeometry x="240" y="-1060" width="10" height="10" as="geometry" />
        </mxCell>
        <mxCell id="0DjkUchRcJfhXVdbSxQK-219" value="" style="verticalLabelPosition=bottom;shadow=0;dashed=0;align=center;html=1;verticalAlign=top;shape=mxgraph.electrical.logic_gates.logic_gate;operation=and;" vertex="1" parent="WIyWlLk6GJQsqaUBKTNV-1">
          <mxGeometry x="285" y="-125" width="100" height="90" as="geometry" />
        </mxCell>
        <mxCell id="0DjkUchRcJfhXVdbSxQK-221" value="Feeding time&amp;nbsp;" style="ellipse;whiteSpace=wrap;html=1;direction=south;" vertex="1" parent="WIyWlLk6GJQsqaUBKTNV-1">
          <mxGeometry x="65" y="-150" width="60" height="60" as="geometry" />
        </mxCell>
        <mxCell id="0DjkUchRcJfhXVdbSxQK-252" style="edgeStyle=orthogonalEdgeStyle;rounded=0;orthogonalLoop=1;jettySize=auto;html=1;exitX=1;exitY=0.5;exitDx=0;exitDy=0;entryX=0;entryY=0.5;entryDx=0;entryDy=0;" edge="1" parent="WIyWlLk6GJQsqaUBKTNV-1" source="0DjkUchRcJfhXVdbSxQK-224" target="0DjkUchRcJfhXVdbSxQK-237">
          <mxGeometry relative="1" as="geometry" />
        </mxCell>
        <mxCell id="0DjkUchRcJfhXVdbSxQK-224" value="Food Level" style="ellipse;whiteSpace=wrap;html=1;" vertex="1" parent="WIyWlLk6GJQsqaUBKTNV-1">
          <mxGeometry x="65" y="-69" width="60" height="50" as="geometry" />
        </mxCell>
        <mxCell id="0DjkUchRcJfhXVdbSxQK-225" value="Food Tray&amp;nbsp;" style="ellipse;whiteSpace=wrap;html=1;" vertex="1" parent="WIyWlLk6GJQsqaUBKTNV-1">
          <mxGeometry x="65" y="-5" width="60" height="50" as="geometry" />
        </mxCell>
        <mxCell id="0DjkUchRcJfhXVdbSxQK-228" value="Previous food&amp;nbsp;" style="ellipse;whiteSpace=wrap;html=1;" vertex="1" parent="WIyWlLk6GJQsqaUBKTNV-1">
          <mxGeometry x="65" y="65" width="60" height="50" as="geometry" />
        </mxCell>
        <mxCell id="0DjkUchRcJfhXVdbSxQK-253" style="edgeStyle=orthogonalEdgeStyle;rounded=0;orthogonalLoop=1;jettySize=auto;html=1;entryX=0;entryY=0.5;entryDx=0;entryDy=0;" edge="1" parent="WIyWlLk6GJQsqaUBKTNV-1" source="0DjkUchRcJfhXVdbSxQK-230" target="0DjkUchRcJfhXVdbSxQK-243">
          <mxGeometry relative="1" as="geometry" />
        </mxCell>
        <mxCell id="0DjkUchRcJfhXVdbSxQK-230" value="Food Eaten after dispensing&amp;nbsp;" style="ellipse;whiteSpace=wrap;html=1;" vertex="1" parent="WIyWlLk6GJQsqaUBKTNV-1">
          <mxGeometry x="60" y="135" width="75" height="50" as="geometry" />
        </mxCell>
        <mxCell id="0DjkUchRcJfhXVdbSxQK-233" value="Dispensing Food&amp;nbsp;" style="ellipse;whiteSpace=wrap;html=1;" vertex="1" parent="WIyWlLk6GJQsqaUBKTNV-1">
          <mxGeometry x="62.5" y="205" width="82.5" height="50" as="geometry" />
        </mxCell>
        <mxCell id="0DjkUchRcJfhXVdbSxQK-236" value="Alarm &quot;The Food is not eaten after dispensing&quot; ." style="rounded=1;whiteSpace=wrap;html=1;" vertex="1" parent="WIyWlLk6GJQsqaUBKTNV-1">
          <mxGeometry x="385" y="-115" width="120" height="60" as="geometry" />
        </mxCell>
        <mxCell id="0DjkUchRcJfhXVdbSxQK-237" value="" style="ellipse;whiteSpace=wrap;html=1;aspect=fixed;" vertex="1" parent="WIyWlLk6GJQsqaUBKTNV-1">
          <mxGeometry x="295" y="-125" width="10" height="10" as="geometry" />
        </mxCell>
        <mxCell id="0DjkUchRcJfhXVdbSxQK-243" value="" style="ellipse;whiteSpace=wrap;html=1;aspect=fixed;" vertex="1" parent="WIyWlLk6GJQsqaUBKTNV-1">
          <mxGeometry x="295" y="-95" width="10" height="10" as="geometry" />
        </mxCell>
        <mxCell id="0DjkUchRcJfhXVdbSxQK-250" style="edgeStyle=orthogonalEdgeStyle;rounded=0;orthogonalLoop=1;jettySize=auto;html=1;exitX=0.5;exitY=0;exitDx=0;exitDy=0;entryX=0;entryY=0.25;entryDx=0;entryDy=0;entryPerimeter=0;" edge="1" parent="WIyWlLk6GJQsqaUBKTNV-1" source="0DjkUchRcJfhXVdbSxQK-221" target="0DjkUchRcJfhXVdbSxQK-219">
          <mxGeometry relative="1" as="geometry" />
        </mxCell>
        <mxCell id="0DjkUchRcJfhXVdbSxQK-251" style="edgeStyle=orthogonalEdgeStyle;rounded=0;orthogonalLoop=1;jettySize=auto;html=1;exitX=1;exitY=0.5;exitDx=0;exitDy=0;entryX=0;entryY=0.75;entryDx=0;entryDy=0;entryPerimeter=0;" edge="1" parent="WIyWlLk6GJQsqaUBKTNV-1" source="0DjkUchRcJfhXVdbSxQK-228" target="0DjkUchRcJfhXVdbSxQK-219">
          <mxGeometry relative="1" as="geometry" />
        </mxCell>
        <mxCell id="0DjkUchRcJfhXVdbSxQK-254" style="edgeStyle=orthogonalEdgeStyle;rounded=0;orthogonalLoop=1;jettySize=auto;html=1;exitX=1;exitY=0.5;exitDx=0;exitDy=0;entryX=0.206;entryY=0.583;entryDx=0;entryDy=0;entryPerimeter=0;" edge="1" parent="WIyWlLk6GJQsqaUBKTNV-1" source="0DjkUchRcJfhXVdbSxQK-225" target="0DjkUchRcJfhXVdbSxQK-219">
          <mxGeometry relative="1" as="geometry">
            <Array as="points">
              <mxPoint x="180" y="20" />
              <mxPoint x="180" y="-72" />
            </Array>
          </mxGeometry>
        </mxCell>
        <mxCell id="0DjkUchRcJfhXVdbSxQK-255" style="edgeStyle=orthogonalEdgeStyle;rounded=0;orthogonalLoop=1;jettySize=auto;html=1;exitX=1;exitY=0.5;exitDx=0;exitDy=0;entryX=0.177;entryY=0.932;entryDx=0;entryDy=0;entryPerimeter=0;" edge="1" parent="WIyWlLk6GJQsqaUBKTNV-1" source="0DjkUchRcJfhXVdbSxQK-233" target="0DjkUchRcJfhXVdbSxQK-219">
          <mxGeometry relative="1" as="geometry">
            <Array as="points">
              <mxPoint x="240" y="230" />
              <mxPoint x="240" y="-41" />
            </Array>
          </mxGeometry>
        </mxCell>
        <mxCell id="0DjkUchRcJfhXVdbSxQK-257" value="" style="verticalLabelPosition=bottom;shadow=0;dashed=0;align=center;html=1;verticalAlign=top;shape=mxgraph.electrical.logic_gates.logic_gate;operation=and;" vertex="1" parent="WIyWlLk6GJQsqaUBKTNV-1">
          <mxGeometry x="265" y="425" width="100" height="90" as="geometry" />
        </mxCell>
        <mxCell id="0DjkUchRcJfhXVdbSxQK-258" value="Feeding time&amp;nbsp;" style="ellipse;whiteSpace=wrap;html=1;direction=south;" vertex="1" parent="WIyWlLk6GJQsqaUBKTNV-1">
          <mxGeometry x="45" y="400" width="60" height="60" as="geometry" />
        </mxCell>
        <mxCell id="0DjkUchRcJfhXVdbSxQK-273" style="edgeStyle=orthogonalEdgeStyle;rounded=0;orthogonalLoop=1;jettySize=auto;html=1;exitX=1;exitY=0.5;exitDx=0;exitDy=0;entryX=0;entryY=0.5;entryDx=0;entryDy=0;" edge="1" parent="WIyWlLk6GJQsqaUBKTNV-1" source="0DjkUchRcJfhXVdbSxQK-260" target="0DjkUchRcJfhXVdbSxQK-267">
          <mxGeometry relative="1" as="geometry" />
        </mxCell>
        <mxCell id="0DjkUchRcJfhXVdbSxQK-260" value="Food Level" style="ellipse;whiteSpace=wrap;html=1;" vertex="1" parent="WIyWlLk6GJQsqaUBKTNV-1">
          <mxGeometry x="45" y="481" width="60" height="50" as="geometry" />
        </mxCell>
        <mxCell id="0DjkUchRcJfhXVdbSxQK-261" value="Food Tray&amp;nbsp;" style="ellipse;whiteSpace=wrap;html=1;" vertex="1" parent="WIyWlLk6GJQsqaUBKTNV-1">
          <mxGeometry x="45" y="545" width="60" height="50" as="geometry" />
        </mxCell>
        <mxCell id="0DjkUchRcJfhXVdbSxQK-262" value="Previous food&amp;nbsp;" style="ellipse;whiteSpace=wrap;html=1;" vertex="1" parent="WIyWlLk6GJQsqaUBKTNV-1">
          <mxGeometry x="45" y="615" width="60" height="50" as="geometry" />
        </mxCell>
        <mxCell id="0DjkUchRcJfhXVdbSxQK-264" value="Food Eaten after dispensing&amp;nbsp;" style="ellipse;whiteSpace=wrap;html=1;" vertex="1" parent="WIyWlLk6GJQsqaUBKTNV-1">
          <mxGeometry x="40" y="685" width="75" height="50" as="geometry" />
        </mxCell>
        <mxCell id="0DjkUchRcJfhXVdbSxQK-265" value="Dispensing Food&amp;nbsp;" style="ellipse;whiteSpace=wrap;html=1;" vertex="1" parent="WIyWlLk6GJQsqaUBKTNV-1">
          <mxGeometry x="42.5" y="755" width="82.5" height="50" as="geometry" />
        </mxCell>
        <mxCell id="0DjkUchRcJfhXVdbSxQK-266" value="Food Dispensed" style="rounded=1;whiteSpace=wrap;html=1;" vertex="1" parent="WIyWlLk6GJQsqaUBKTNV-1">
          <mxGeometry x="365" y="435" width="120" height="60" as="geometry" />
        </mxCell>
        <mxCell id="0DjkUchRcJfhXVdbSxQK-267" value="" style="ellipse;whiteSpace=wrap;html=1;aspect=fixed;" vertex="1" parent="WIyWlLk6GJQsqaUBKTNV-1">
          <mxGeometry x="275" y="425" width="10" height="10" as="geometry" />
        </mxCell>
        <mxCell id="0DjkUchRcJfhXVdbSxQK-269" style="edgeStyle=orthogonalEdgeStyle;rounded=0;orthogonalLoop=1;jettySize=auto;html=1;exitX=0.5;exitY=0;exitDx=0;exitDy=0;entryX=0;entryY=0.25;entryDx=0;entryDy=0;entryPerimeter=0;" edge="1" parent="WIyWlLk6GJQsqaUBKTNV-1" source="0DjkUchRcJfhXVdbSxQK-258" target="0DjkUchRcJfhXVdbSxQK-257">
          <mxGeometry relative="1" as="geometry" />
        </mxCell>
        <mxCell id="0DjkUchRcJfhXVdbSxQK-274" style="edgeStyle=orthogonalEdgeStyle;rounded=0;orthogonalLoop=1;jettySize=auto;html=1;exitX=1;exitY=0.5;exitDx=0;exitDy=0;entryX=0.187;entryY=0.504;entryDx=0;entryDy=0;entryPerimeter=0;" edge="1" parent="WIyWlLk6GJQsqaUBKTNV-1" source="0DjkUchRcJfhXVdbSxQK-261" target="0DjkUchRcJfhXVdbSxQK-257">
          <mxGeometry relative="1" as="geometry">
            <Array as="points">
              <mxPoint x="210" y="570" />
              <mxPoint x="210" y="470" />
            </Array>
          </mxGeometry>
        </mxCell>
        <mxCell id="0DjkUchRcJfhXVdbSxQK-275" style="edgeStyle=orthogonalEdgeStyle;rounded=0;orthogonalLoop=1;jettySize=auto;html=1;exitX=1;exitY=0.5;exitDx=0;exitDy=0;entryX=0;entryY=0.75;entryDx=0;entryDy=0;entryPerimeter=0;" edge="1" parent="WIyWlLk6GJQsqaUBKTNV-1" source="0DjkUchRcJfhXVdbSxQK-262" target="0DjkUchRcJfhXVdbSxQK-257">
          <mxGeometry relative="1" as="geometry" />
        </mxCell>
        <mxCell id="0DjkUchRcJfhXVdbSxQK-276" style="edgeStyle=orthogonalEdgeStyle;rounded=0;orthogonalLoop=1;jettySize=auto;html=1;exitX=1;exitY=0.5;exitDx=0;exitDy=0;entryX=0.15;entryY=0.611;entryDx=0;entryDy=0;entryPerimeter=0;" edge="1" parent="WIyWlLk6GJQsqaUBKTNV-1" source="0DjkUchRcJfhXVdbSxQK-264" target="0DjkUchRcJfhXVdbSxQK-257">
          <mxGeometry relative="1" as="geometry">
            <Array as="points">
              <mxPoint x="230" y="710" />
              <mxPoint x="230" y="480" />
            </Array>
          </mxGeometry>
        </mxCell>
        <mxCell id="0DjkUchRcJfhXVdbSxQK-277" style="edgeStyle=orthogonalEdgeStyle;rounded=0;orthogonalLoop=1;jettySize=auto;html=1;exitX=1;exitY=0.5;exitDx=0;exitDy=0;entryX=0.206;entryY=0.916;entryDx=0;entryDy=0;entryPerimeter=0;" edge="1" parent="WIyWlLk6GJQsqaUBKTNV-1" source="0DjkUchRcJfhXVdbSxQK-265" target="0DjkUchRcJfhXVdbSxQK-257">
          <mxGeometry relative="1" as="geometry">
            <Array as="points">
              <mxPoint x="260" y="780" />
              <mxPoint x="260" y="507" />
            </Array>
          </mxGeometry>
        </mxCell>
      </root>
    </mxGraphModel>
  </diagram>
</mxfile>
